{
  "accessors": [
    {
      "bufferView": 2,
      "componentType": 5126,
      "count": 46006,
      "max": [
        15.111507415771484,
        15.30207347869873,
        9.801108360290527
      ],
      "min": [
        -15.121992111206055,
        -15.094779968261719,
        0.021263428032398224
      ],
      "type": "VEC3"
    },
    {
      "bufferView": 2,
      "byteOffset": 552072,
      "componentType": 5126,
      "count": 46006,
      "max": [
        1.0,
        1.0,
        1.0
      ],
      "min": [
        -1.0,
        -1.0,
        -1.0
      ],
      "type": "VEC3"
    },
    {
      "bufferView": 3,
      "componentType": 5126,
      "count": 46006,
      "max": [
        1.0,
        1.0,
        1.0,
        1.0
      ],
      "min": [
        -1.0,
        -1.0,
        -1.0,
        -1.0
      ],
      "type": "VEC4"
    },
    {
      "bufferView": 1,
      "componentType": 5126,
      "count": 46006,
      "max": [
        0.9925552010536194,
        0.9969077110290527
      ],
      "min": [
        0.017022132873535156,
        0.014180433936417103
      ],
      "type": "VEC2"
    },
    {
      "bufferView": 1,
      "byteOffset": 368048,
      "componentType": 5126,
      "count": 46006,
      "max": [
        0.9925552010536194,
        0.9969077110290527
      ],
      "min": [
        0.017022132873535156,
        0.014180433936417103
      ],
      "type": "VEC2"
    },
    {
      "bufferView": 1,
      "byteOffset": 736096,
      "componentType": 5126,
      "count": 46006,
      "max": [
        0.9925552010536194,
        0.9969077110290527
      ],
      "min": [
        0.017022132873535156,
        0.014180433936417103
      ],
      "type": "VEC2"
    },
    {
      "bufferView": 0,
      "componentType": 5125,
      "count": 169059,
      "type": "SCALAR"
    }
  ],
  "asset": {
    "extras": {
      "author": "MUSKONGE (https://sketchfab.com/MOUSIOON)",
      "license": "CC-BY-4.0 (http://creativecommons.org/licenses/by/4.0/)",
      "source": "https://sketchfab.com/3d-models/muskonge-n24t6n23s6001-2ec7e66ddf1349169487bc356a74d07b",
      "title": "MUSKONGE_N24T6N23S6001"
    },
    "generator": "Sketchfab-15.29.0",
    "version": "2.0"
  },
  "bufferViews": [
    {
      "buffer": 0,
      "byteLength": 676236,
      "name": "floatBufferViews",
      "target": 34963
    },
    {
      "buffer": 0,
      "byteLength": 1104144,
      "byteOffset": 676236,
      "byteStride": 8,
      "name": "floatBufferViews",
      "target": 34962
    },
    {
      "buffer": 0,
      "byteLength": 1104144,
      "byteOffset": 1780380,
      "byteStride": 12,
      "name": "floatBufferViews",
      "target": 34962
    },
    {
      "buffer": 0,
      "byteLength": 736096,
      "byteOffset": 2884524,
      "byteStride": 16,
      "name": "floatBufferViews",
      "target": 34962
    }
  ],
  "buffers": [
    {
      "byteLength": 3620620,
      "uri": "scene.bin"
    }
  ],
  "images": [
    {
      "uri": "textures/ASSET_MAT_MR_baseColor.png"
    },
    {
      "uri": "textures/ASSET_MAT_MR_metallicRoughness.png"
    },
    {
      "uri": "textures/ASSET_MAT_MR_normal.png"
    }
  ],
  "materials": [
    {
      "doubleSided": true,
      "name": "ASSET_MAT_MR",
      "normalTexture": {
        "index": 2
      },
      "pbrMetallicRoughness": {
        "baseColorTexture": {
          "index": 0
        },
        "metallicRoughnessTexture": {
          "index": 1
        }
      }
    }
  ],
  "meshes": [
    {
      "name": "ASSET_ASSET_MAT_MR_0",
      "primitives": [
        {
          "attributes": {
            "NORMAL": 1,
            "POSITION": 0,
            "TANGENT": 2,
            "TEXCOORD_0": 3,
            "TEXCOORD_1": 4,
            "TEXCOORD_2": 5
          },
          "indices": 6,
          "material": 0,
          "mode": 4
        }
      ]
    }
  ],
  "nodes": [
    {
      "children": [
        1
      ],
      "matrix": [
        1.0,
        0.0,
        0.0,
        0.0,
        0.0,
        2.220446049250313e-16,
        -1.0,
        0.0,
        0.0,
        1.0,
        2.220446049250313e-16,
        0.0,
        0.0,
        0.0,
        0.0,
        1.0
      ],
      "name": "Sketchfab_model"
    },
    {
      "children": [
        2
      ],
      "matrix": [
        0.009999999776482582,
        0.0,
        0.0,
        0.0,
        0.0,
        0.0,
        0.009999999776482582,
        0.0,
        0.0,
        -0.009999999776482582,
        0.0,
        0.0,
        0.0,
        0.0,
        0.0,
        1.0
      ],
      "name": "ASSET.FBX"
    },
    {
      "children": [
        3
      ],
      "name": "RootNode"
    },
    {
      "children": [
        4
      ],
      "matrix": [
        1.0,
        0.0,
        0.0,
        0.0,
        0.0,
        2.220446049250313e-16,
        -1.0,
        0.0,
        0.0,
        1.0,
        2.220446049250313e-16,
        0.0,
        -0.0002536773681640625,
        0.0,
        0.0,
        1.0
      ],
      "name": "ASSET"
    },
    {
      "mesh": 0,
      "name": "ASSET_ASSET_MAT_MR_0"
    }
  ],
  "samplers": [
    {
      "magFilter": 9729,
      "minFilter": 9987,
      "wrapS": 10497,
      "wrapT": 10497
    }
  ],
  "scene": 0,
  "scenes": [
    {
      "name": "Sketchfab_Scene",
      "nodes": [
        0
      ]
    }
  ],
  "textures": [
    {
      "sampler": 0,
      "source": 0
    },
    {
      "sampler": 0,
      "source": 1
    },
    {
      "sampler": 0,
      "source": 2
    }
  ]
}
